<mxfile host="app.diagrams.net" modified="2024-05-14T10:22:41.296Z" agent="Mozilla/5.0 (Windows NT 10.0; Win64; x64) AppleWebKit/537.36 (KHTML, like Gecko) Chrome/124.0.0.0 Safari/537.36" version="24.4.0" etag="CZwXW67T4J1g13KFThg1" type="device">
  <diagram id="lXu57hQuGMgcBMZIN8ks" name="Page-1">
    <mxGraphModel dx="794" dy="507" grid="1" gridSize="10" guides="1" tooltips="1" connect="1" arrows="1" fold="1" page="1" pageScale="1" pageWidth="827" pageHeight="1169" math="0" shadow="0">
      <root>
        <mxCell id="0" />
        <mxCell id="1" parent="0" />
        <mxCell id="e5Bgn7xLFJ1IcLlp3M_Y-47" value="Apprenant" style="swimlane;fontStyle=1;align=center;verticalAlign=top;childLayout=stackLayout;horizontal=1;startSize=24.83333396911621;horizontalStack=0;resizeParent=1;resizeParentMax=0;resizeLast=0;collapsible=0;marginBottom=0;" vertex="1" parent="1">
          <mxGeometry x="53" y="137" width="95" height="36.83333396911621" as="geometry" />
        </mxCell>
        <mxCell id="e5Bgn7xLFJ1IcLlp3M_Y-48" style="line;strokeWidth=1;fillColor=none;align=left;verticalAlign=middle;spacingTop=-1;spacingLeft=3;spacingRight=3;rotatable=0;labelPosition=right;points=[];portConstraint=eastwest;strokeColor=inherit;" vertex="1" parent="e5Bgn7xLFJ1IcLlp3M_Y-47">
          <mxGeometry y="24.83333396911621" width="95" height="12" as="geometry" />
        </mxCell>
        <mxCell id="e5Bgn7xLFJ1IcLlp3M_Y-49" value="Formateur" style="swimlane;fontStyle=1;align=center;verticalAlign=top;childLayout=stackLayout;horizontal=1;startSize=24.83333396911621;horizontalStack=0;resizeParent=1;resizeParentMax=0;resizeLast=0;collapsible=0;marginBottom=0;" vertex="1" parent="1">
          <mxGeometry x="535" y="82" width="94" height="36.83333396911621" as="geometry" />
        </mxCell>
        <mxCell id="e5Bgn7xLFJ1IcLlp3M_Y-50" style="line;strokeWidth=1;fillColor=none;align=left;verticalAlign=middle;spacingTop=-1;spacingLeft=3;spacingRight=3;rotatable=0;labelPosition=right;points=[];portConstraint=eastwest;strokeColor=inherit;" vertex="1" parent="e5Bgn7xLFJ1IcLlp3M_Y-49">
          <mxGeometry y="24.83333396911621" width="94" height="12" as="geometry" />
        </mxCell>
        <mxCell id="e5Bgn7xLFJ1IcLlp3M_Y-51" value="Projet" style="swimlane;fontStyle=1;align=center;verticalAlign=top;childLayout=stackLayout;horizontal=1;startSize=24.50980332318474;horizontalStack=0;resizeParent=1;resizeParentMax=0;resizeLast=0;collapsible=0;marginBottom=0;" vertex="1" parent="1">
          <mxGeometry x="443" y="189" width="158" height="211.50980332318474" as="geometry" />
        </mxCell>
        <mxCell id="e5Bgn7xLFJ1IcLlp3M_Y-52" value="id: int" style="text;strokeColor=none;fillColor=none;align=left;verticalAlign=top;spacingLeft=4;spacingRight=4;overflow=hidden;rotatable=0;points=[[0,0.5],[1,0.5]];portConstraint=eastwest;" vertex="1" parent="e5Bgn7xLFJ1IcLlp3M_Y-51">
          <mxGeometry y="24.50980332318474" width="158" height="25" as="geometry" />
        </mxCell>
        <mxCell id="e5Bgn7xLFJ1IcLlp3M_Y-53" value="nom: string" style="text;strokeColor=none;fillColor=none;align=left;verticalAlign=top;spacingLeft=4;spacingRight=4;overflow=hidden;rotatable=0;points=[[0,0.5],[1,0.5]];portConstraint=eastwest;" vertex="1" parent="e5Bgn7xLFJ1IcLlp3M_Y-51">
          <mxGeometry y="49.50980332318474" width="158" height="25" as="geometry" />
        </mxCell>
        <mxCell id="e5Bgn7xLFJ1IcLlp3M_Y-54" value="description: string" style="text;strokeColor=none;fillColor=none;align=left;verticalAlign=top;spacingLeft=4;spacingRight=4;overflow=hidden;rotatable=0;points=[[0,0.5],[1,0.5]];portConstraint=eastwest;" vertex="1" parent="e5Bgn7xLFJ1IcLlp3M_Y-51">
          <mxGeometry y="74.50980332318474" width="158" height="25" as="geometry" />
        </mxCell>
        <mxCell id="e5Bgn7xLFJ1IcLlp3M_Y-55" value="objectifs: string" style="text;strokeColor=none;fillColor=none;align=left;verticalAlign=top;spacingLeft=4;spacingRight=4;overflow=hidden;rotatable=0;points=[[0,0.5],[1,0.5]];portConstraint=eastwest;" vertex="1" parent="e5Bgn7xLFJ1IcLlp3M_Y-51">
          <mxGeometry y="99.50980332318474" width="158" height="25" as="geometry" />
        </mxCell>
        <mxCell id="e5Bgn7xLFJ1IcLlp3M_Y-56" value="dateDebut: date" style="text;strokeColor=none;fillColor=none;align=left;verticalAlign=top;spacingLeft=4;spacingRight=4;overflow=hidden;rotatable=0;points=[[0,0.5],[1,0.5]];portConstraint=eastwest;" vertex="1" parent="e5Bgn7xLFJ1IcLlp3M_Y-51">
          <mxGeometry y="124.50980332318474" width="158" height="25" as="geometry" />
        </mxCell>
        <mxCell id="e5Bgn7xLFJ1IcLlp3M_Y-57" value="dateEcheance: date" style="text;strokeColor=none;fillColor=none;align=left;verticalAlign=top;spacingLeft=4;spacingRight=4;overflow=hidden;rotatable=0;points=[[0,0.5],[1,0.5]];portConstraint=eastwest;" vertex="1" parent="e5Bgn7xLFJ1IcLlp3M_Y-51">
          <mxGeometry y="149.50980332318474" width="158" height="25" as="geometry" />
        </mxCell>
        <mxCell id="e5Bgn7xLFJ1IcLlp3M_Y-58" value="statut: string" style="text;strokeColor=none;fillColor=none;align=left;verticalAlign=top;spacingLeft=4;spacingRight=4;overflow=hidden;rotatable=0;points=[[0,0.5],[1,0.5]];portConstraint=eastwest;" vertex="1" parent="e5Bgn7xLFJ1IcLlp3M_Y-51">
          <mxGeometry y="174.50980332318474" width="158" height="25" as="geometry" />
        </mxCell>
        <mxCell id="e5Bgn7xLFJ1IcLlp3M_Y-59" style="line;strokeWidth=1;fillColor=none;align=left;verticalAlign=middle;spacingTop=-1;spacingLeft=3;spacingRight=3;rotatable=0;labelPosition=right;points=[];portConstraint=eastwest;strokeColor=inherit;" vertex="1" parent="e5Bgn7xLFJ1IcLlp3M_Y-51">
          <mxGeometry y="199.50980332318474" width="158" height="12" as="geometry" />
        </mxCell>
        <mxCell id="e5Bgn7xLFJ1IcLlp3M_Y-60" value="Tache" style="swimlane;fontStyle=1;align=center;verticalAlign=top;childLayout=stackLayout;horizontal=1;startSize=24.158732096354168;horizontalStack=0;resizeParent=1;resizeParentMax=0;resizeLast=0;collapsible=0;marginBottom=0;" vertex="1" parent="1">
          <mxGeometry x="230" y="166" width="163" height="252.15873209635419" as="geometry" />
        </mxCell>
        <mxCell id="e5Bgn7xLFJ1IcLlp3M_Y-61" value="id: int" style="text;strokeColor=none;fillColor=none;align=left;verticalAlign=top;spacingLeft=4;spacingRight=4;overflow=hidden;rotatable=0;points=[[0,0.5],[1,0.5]];portConstraint=eastwest;" vertex="1" parent="e5Bgn7xLFJ1IcLlp3M_Y-60">
          <mxGeometry y="24.158732096354168" width="163" height="24" as="geometry" />
        </mxCell>
        <mxCell id="e5Bgn7xLFJ1IcLlp3M_Y-62" value="nom: string" style="text;strokeColor=none;fillColor=none;align=left;verticalAlign=top;spacingLeft=4;spacingRight=4;overflow=hidden;rotatable=0;points=[[0,0.5],[1,0.5]];portConstraint=eastwest;" vertex="1" parent="e5Bgn7xLFJ1IcLlp3M_Y-60">
          <mxGeometry y="48.15873209635417" width="163" height="24" as="geometry" />
        </mxCell>
        <mxCell id="e5Bgn7xLFJ1IcLlp3M_Y-63" value="description: string" style="text;strokeColor=none;fillColor=none;align=left;verticalAlign=top;spacingLeft=4;spacingRight=4;overflow=hidden;rotatable=0;points=[[0,0.5],[1,0.5]];portConstraint=eastwest;" vertex="1" parent="e5Bgn7xLFJ1IcLlp3M_Y-60">
          <mxGeometry y="72.15873209635417" width="163" height="24" as="geometry" />
        </mxCell>
        <mxCell id="e5Bgn7xLFJ1IcLlp3M_Y-64" value="priorité: string" style="text;strokeColor=none;fillColor=none;align=left;verticalAlign=top;spacingLeft=4;spacingRight=4;overflow=hidden;rotatable=0;points=[[0,0.5],[1,0.5]];portConstraint=eastwest;" vertex="1" parent="e5Bgn7xLFJ1IcLlp3M_Y-60">
          <mxGeometry y="96.15873209635417" width="163" height="24" as="geometry" />
        </mxCell>
        <mxCell id="e5Bgn7xLFJ1IcLlp3M_Y-65" value="dateÉchéance: date" style="text;strokeColor=none;fillColor=none;align=left;verticalAlign=top;spacingLeft=4;spacingRight=4;overflow=hidden;rotatable=0;points=[[0,0.5],[1,0.5]];portConstraint=eastwest;" vertex="1" parent="e5Bgn7xLFJ1IcLlp3M_Y-60">
          <mxGeometry y="120.15873209635417" width="163" height="24" as="geometry" />
        </mxCell>
        <mxCell id="e5Bgn7xLFJ1IcLlp3M_Y-66" value="statut: string" style="text;strokeColor=none;fillColor=none;align=left;verticalAlign=top;spacingLeft=4;spacingRight=4;overflow=hidden;rotatable=0;points=[[0,0.5],[1,0.5]];portConstraint=eastwest;" vertex="1" parent="e5Bgn7xLFJ1IcLlp3M_Y-60">
          <mxGeometry y="144.15873209635419" width="163" height="24" as="geometry" />
        </mxCell>
        <mxCell id="e5Bgn7xLFJ1IcLlp3M_Y-67" value="assigné: User" style="text;strokeColor=none;fillColor=none;align=left;verticalAlign=top;spacingLeft=4;spacingRight=4;overflow=hidden;rotatable=0;points=[[0,0.5],[1,0.5]];portConstraint=eastwest;" vertex="1" parent="e5Bgn7xLFJ1IcLlp3M_Y-60">
          <mxGeometry y="168.15873209635419" width="163" height="24" as="geometry" />
        </mxCell>
        <mxCell id="e5Bgn7xLFJ1IcLlp3M_Y-68" value="projet: Projet" style="text;strokeColor=none;fillColor=none;align=left;verticalAlign=top;spacingLeft=4;spacingRight=4;overflow=hidden;rotatable=0;points=[[0,0.5],[1,0.5]];portConstraint=eastwest;" vertex="1" parent="e5Bgn7xLFJ1IcLlp3M_Y-60">
          <mxGeometry y="192.15873209635419" width="163" height="24" as="geometry" />
        </mxCell>
        <mxCell id="e5Bgn7xLFJ1IcLlp3M_Y-69" value="sous-tâches: Tâche[]" style="text;strokeColor=none;fillColor=none;align=left;verticalAlign=top;spacingLeft=4;spacingRight=4;overflow=hidden;rotatable=0;points=[[0,0.5],[1,0.5]];portConstraint=eastwest;" vertex="1" parent="e5Bgn7xLFJ1IcLlp3M_Y-60">
          <mxGeometry y="216.15873209635419" width="163" height="24" as="geometry" />
        </mxCell>
        <mxCell id="e5Bgn7xLFJ1IcLlp3M_Y-70" style="line;strokeWidth=1;fillColor=none;align=left;verticalAlign=middle;spacingTop=-1;spacingLeft=3;spacingRight=3;rotatable=0;labelPosition=right;points=[];portConstraint=eastwest;strokeColor=inherit;" vertex="1" parent="e5Bgn7xLFJ1IcLlp3M_Y-60">
          <mxGeometry y="240.15873209635419" width="163" height="12" as="geometry" />
        </mxCell>
        <mxCell id="e5Bgn7xLFJ1IcLlp3M_Y-71" value="statutProjetTache" style="swimlane;fontStyle=1;align=center;verticalAlign=top;childLayout=stackLayout;horizontal=1;startSize=26.148147583007812;horizontalStack=0;resizeParent=1;resizeParentMax=0;resizeLast=0;collapsible=0;marginBottom=0;" vertex="1" parent="1">
          <mxGeometry x="53" y="500" width="149" height="117.14814758300781" as="geometry" />
        </mxCell>
        <mxCell id="e5Bgn7xLFJ1IcLlp3M_Y-72" value="id: int" style="text;strokeColor=none;fillColor=none;align=left;verticalAlign=top;spacingLeft=4;spacingRight=4;overflow=hidden;rotatable=0;points=[[0,0.5],[1,0.5]];portConstraint=eastwest;" vertex="1" parent="e5Bgn7xLFJ1IcLlp3M_Y-71">
          <mxGeometry y="26.148147583007812" width="149" height="26" as="geometry" />
        </mxCell>
        <mxCell id="e5Bgn7xLFJ1IcLlp3M_Y-73" value="nom: string" style="text;strokeColor=none;fillColor=none;align=left;verticalAlign=top;spacingLeft=4;spacingRight=4;overflow=hidden;rotatable=0;points=[[0,0.5],[1,0.5]];portConstraint=eastwest;" vertex="1" parent="e5Bgn7xLFJ1IcLlp3M_Y-71">
          <mxGeometry y="52.14814758300781" width="149" height="26" as="geometry" />
        </mxCell>
        <mxCell id="e5Bgn7xLFJ1IcLlp3M_Y-74" value="description: string" style="text;strokeColor=none;fillColor=none;align=left;verticalAlign=top;spacingLeft=4;spacingRight=4;overflow=hidden;rotatable=0;points=[[0,0.5],[1,0.5]];portConstraint=eastwest;" vertex="1" parent="e5Bgn7xLFJ1IcLlp3M_Y-71">
          <mxGeometry y="78.14814758300781" width="149" height="26" as="geometry" />
        </mxCell>
        <mxCell id="e5Bgn7xLFJ1IcLlp3M_Y-75" style="line;strokeWidth=1;fillColor=none;align=left;verticalAlign=middle;spacingTop=-1;spacingLeft=3;spacingRight=3;rotatable=0;labelPosition=right;points=[];portConstraint=eastwest;strokeColor=inherit;" vertex="1" parent="e5Bgn7xLFJ1IcLlp3M_Y-71">
          <mxGeometry y="104.14814758300781" width="149" height="13" as="geometry" />
        </mxCell>
        <mxCell id="e5Bgn7xLFJ1IcLlp3M_Y-76" value="Technologie" style="swimlane;fontStyle=1;align=center;verticalAlign=top;childLayout=stackLayout;horizontal=1;startSize=24.83333396911621;horizontalStack=0;resizeParent=1;resizeParentMax=0;resizeLast=0;collapsible=0;marginBottom=0;" vertex="1" parent="1">
          <mxGeometry x="70" y="350" width="105" height="36.83333396911621" as="geometry" />
        </mxCell>
        <mxCell id="e5Bgn7xLFJ1IcLlp3M_Y-77" style="line;strokeWidth=1;fillColor=none;align=left;verticalAlign=middle;spacingTop=-1;spacingLeft=3;spacingRight=3;rotatable=0;labelPosition=right;points=[];portConstraint=eastwest;strokeColor=inherit;" vertex="1" parent="e5Bgn7xLFJ1IcLlp3M_Y-76">
          <mxGeometry y="24.83333396911621" width="105" height="12" as="geometry" />
        </mxCell>
        <mxCell id="e5Bgn7xLFJ1IcLlp3M_Y-78" value="NiveauCompetence" style="swimlane;fontStyle=1;align=center;verticalAlign=top;childLayout=stackLayout;horizontal=1;startSize=24.83333396911621;horizontalStack=0;resizeParent=1;resizeParentMax=0;resizeLast=0;collapsible=0;marginBottom=0;" vertex="1" parent="1">
          <mxGeometry x="20" y="29" width="160" height="36.83333396911621" as="geometry" />
        </mxCell>
        <mxCell id="e5Bgn7xLFJ1IcLlp3M_Y-79" style="line;strokeWidth=1;fillColor=none;align=left;verticalAlign=middle;spacingTop=-1;spacingLeft=3;spacingRight=3;rotatable=0;labelPosition=right;points=[];portConstraint=eastwest;strokeColor=inherit;" vertex="1" parent="e5Bgn7xLFJ1IcLlp3M_Y-78">
          <mxGeometry y="24.83333396911621" width="160" height="12" as="geometry" />
        </mxCell>
        <mxCell id="e5Bgn7xLFJ1IcLlp3M_Y-80" value="" style="curved=1;startArrow=none;endArrow=open;endSize=12;exitX=0.21181157120236094;exitY=7.064254195601851e-8;entryX=0;entryY=0.5;rounded=0;entryDx=0;entryDy=0;" edge="1" parent="1" source="e5Bgn7xLFJ1IcLlp3M_Y-51" target="e5Bgn7xLFJ1IcLlp3M_Y-49">
          <mxGeometry relative="1" as="geometry">
            <Array as="points">
              <mxPoint x="418" y="49" />
            </Array>
          </mxGeometry>
        </mxCell>
        <mxCell id="e5Bgn7xLFJ1IcLlp3M_Y-81" value="1" style="edgeLabel;resizable=0;labelBackgroundColor=none;fontSize=12;align=right;verticalAlign=bottom;" vertex="1" parent="e5Bgn7xLFJ1IcLlp3M_Y-80">
          <mxGeometry x="-1" relative="1" as="geometry" />
        </mxCell>
        <mxCell id="e5Bgn7xLFJ1IcLlp3M_Y-82" value="*" style="edgeLabel;resizable=0;labelBackgroundColor=none;fontSize=12;align=left;verticalAlign=top;" vertex="1" parent="e5Bgn7xLFJ1IcLlp3M_Y-80">
          <mxGeometry x="1" relative="1" as="geometry" />
        </mxCell>
        <mxCell id="e5Bgn7xLFJ1IcLlp3M_Y-83" value="" style="curved=1;startArrow=none;endArrow=open;endSize=12;exitX=-0.0019117910650712025;exitY=0.5007716638070566;entryX=0.9981468528326304;entryY=0.5006361808485658;rounded=0;" edge="1" parent="1" source="e5Bgn7xLFJ1IcLlp3M_Y-51" target="e5Bgn7xLFJ1IcLlp3M_Y-60">
          <mxGeometry relative="1" as="geometry">
            <Array as="points" />
          </mxGeometry>
        </mxCell>
        <mxCell id="e5Bgn7xLFJ1IcLlp3M_Y-84" value="1" style="edgeLabel;resizable=0;labelBackgroundColor=none;fontSize=12;align=right;verticalAlign=bottom;" vertex="1" parent="e5Bgn7xLFJ1IcLlp3M_Y-83">
          <mxGeometry x="-1" relative="1" as="geometry" />
        </mxCell>
        <mxCell id="e5Bgn7xLFJ1IcLlp3M_Y-85" value="*" style="edgeLabel;resizable=0;labelBackgroundColor=none;fontSize=12;align=left;verticalAlign=top;" vertex="1" parent="e5Bgn7xLFJ1IcLlp3M_Y-83">
          <mxGeometry x="1" relative="1" as="geometry" />
        </mxCell>
        <mxCell id="e5Bgn7xLFJ1IcLlp3M_Y-86" value="" style="curved=1;startArrow=none;endArrow=open;endSize=12;exitX=-0.0019810214364455524;exitY=0.3728458927406716;entryX=0.8563418135657709;entryY=0.9942529283720871;rounded=0;" edge="1" parent="1" source="e5Bgn7xLFJ1IcLlp3M_Y-60" target="e5Bgn7xLFJ1IcLlp3M_Y-47">
          <mxGeometry relative="1" as="geometry">
            <Array as="points">
              <mxPoint x="205" y="253" />
            </Array>
          </mxGeometry>
        </mxCell>
        <mxCell id="e5Bgn7xLFJ1IcLlp3M_Y-87" value="*" style="edgeLabel;resizable=0;labelBackgroundColor=none;fontSize=12;align=right;verticalAlign=bottom;" vertex="1" parent="e5Bgn7xLFJ1IcLlp3M_Y-86">
          <mxGeometry x="-1" relative="1" as="geometry" />
        </mxCell>
        <mxCell id="e5Bgn7xLFJ1IcLlp3M_Y-88" value="*" style="edgeLabel;resizable=0;labelBackgroundColor=none;fontSize=12;align=left;verticalAlign=top;" vertex="1" parent="e5Bgn7xLFJ1IcLlp3M_Y-86">
          <mxGeometry x="1" relative="1" as="geometry" />
        </mxCell>
        <mxCell id="e5Bgn7xLFJ1IcLlp3M_Y-89" value="&quot;participants&quot;" style="curved=1;startArrow=none;endArrow=open;endSize=12;exitX=0.09191785913499383;exitY=7.064254195601851e-8;entryX=0.990679891485917;entryY=0.15632879480899;rounded=0;" edge="1" parent="1" source="e5Bgn7xLFJ1IcLlp3M_Y-51" target="e5Bgn7xLFJ1IcLlp3M_Y-47">
          <mxGeometry relative="1" as="geometry">
            <Array as="points">
              <mxPoint x="418" y="122" />
              <mxPoint x="205" y="122" />
            </Array>
          </mxGeometry>
        </mxCell>
        <mxCell id="e5Bgn7xLFJ1IcLlp3M_Y-90" value="*" style="edgeLabel;resizable=0;labelBackgroundColor=none;fontSize=12;align=right;verticalAlign=bottom;" vertex="1" parent="e5Bgn7xLFJ1IcLlp3M_Y-89">
          <mxGeometry x="-1" relative="1" as="geometry" />
        </mxCell>
        <mxCell id="e5Bgn7xLFJ1IcLlp3M_Y-91" value="*" style="edgeLabel;resizable=0;labelBackgroundColor=none;fontSize=12;align=left;verticalAlign=top;" vertex="1" parent="e5Bgn7xLFJ1IcLlp3M_Y-89">
          <mxGeometry x="1" relative="1" as="geometry" />
        </mxCell>
        <mxCell id="e5Bgn7xLFJ1IcLlp3M_Y-92" value="" style="curved=1;startArrow=none;endArrow=open;endSize=12;exitX=0.06901534722355633;exitY=1.0015432569715712;entryX=0.9764680664782983;entryY=1.0000004110665157;rounded=0;" edge="1" parent="1" source="e5Bgn7xLFJ1IcLlp3M_Y-51" target="e5Bgn7xLFJ1IcLlp3M_Y-76">
          <mxGeometry relative="1" as="geometry">
            <Array as="points">
              <mxPoint x="418" y="463" />
              <mxPoint x="205" y="463" />
            </Array>
          </mxGeometry>
        </mxCell>
        <mxCell id="e5Bgn7xLFJ1IcLlp3M_Y-93" value="*" style="edgeLabel;resizable=0;labelBackgroundColor=none;fontSize=12;align=right;verticalAlign=bottom;" vertex="1" parent="e5Bgn7xLFJ1IcLlp3M_Y-92">
          <mxGeometry x="-1" relative="1" as="geometry" />
        </mxCell>
        <mxCell id="e5Bgn7xLFJ1IcLlp3M_Y-94" value="*" style="edgeLabel;resizable=0;labelBackgroundColor=none;fontSize=12;align=left;verticalAlign=top;" vertex="1" parent="e5Bgn7xLFJ1IcLlp3M_Y-92">
          <mxGeometry x="1" relative="1" as="geometry" />
        </mxCell>
        <mxCell id="e5Bgn7xLFJ1IcLlp3M_Y-95" value="" style="curved=1;startArrow=none;endArrow=open;endSize=12;exitX=0.14037790943742678;exitY=0.0012722743376520755;entryX=0.9979818344116211;entryY=0.5028735851419384;rounded=0;" edge="1" parent="1" source="e5Bgn7xLFJ1IcLlp3M_Y-60" target="e5Bgn7xLFJ1IcLlp3M_Y-78">
          <mxGeometry relative="1" as="geometry">
            <Array as="points">
              <mxPoint x="205" y="58" />
            </Array>
          </mxGeometry>
        </mxCell>
        <mxCell id="e5Bgn7xLFJ1IcLlp3M_Y-96" value="*" style="edgeLabel;resizable=0;labelBackgroundColor=none;fontSize=12;align=right;verticalAlign=bottom;" vertex="1" parent="e5Bgn7xLFJ1IcLlp3M_Y-95">
          <mxGeometry x="-1" relative="1" as="geometry" />
        </mxCell>
        <mxCell id="e5Bgn7xLFJ1IcLlp3M_Y-97" value="1" style="edgeLabel;resizable=0;labelBackgroundColor=none;fontSize=12;align=left;verticalAlign=top;" vertex="1" parent="e5Bgn7xLFJ1IcLlp3M_Y-95">
          <mxGeometry x="1" relative="1" as="geometry" />
        </mxCell>
        <mxCell id="e5Bgn7xLFJ1IcLlp3M_Y-98" value="" style="curved=1;startArrow=none;endArrow=open;endSize=12;exitX=-0.0019810214364455524;exitY=0.5651398588387435;entryX=0.8504282342226388;entryY=0.0057475155797497976;rounded=0;" edge="1" parent="1" source="e5Bgn7xLFJ1IcLlp3M_Y-60" target="e5Bgn7xLFJ1IcLlp3M_Y-76">
          <mxGeometry relative="1" as="geometry">
            <Array as="points">
              <mxPoint x="205" y="319" />
            </Array>
          </mxGeometry>
        </mxCell>
        <mxCell id="e5Bgn7xLFJ1IcLlp3M_Y-99" value="*" style="edgeLabel;resizable=0;labelBackgroundColor=none;fontSize=12;align=right;verticalAlign=bottom;" vertex="1" parent="e5Bgn7xLFJ1IcLlp3M_Y-98">
          <mxGeometry x="-1" relative="1" as="geometry" />
        </mxCell>
        <mxCell id="e5Bgn7xLFJ1IcLlp3M_Y-100" value="*" style="edgeLabel;resizable=0;labelBackgroundColor=none;fontSize=12;align=left;verticalAlign=top;" vertex="1" parent="e5Bgn7xLFJ1IcLlp3M_Y-98">
          <mxGeometry x="1" relative="1" as="geometry" />
        </mxCell>
        <mxCell id="e5Bgn7xLFJ1IcLlp3M_Y-101" value="" style="curved=1;startArrow=none;endArrow=open;endSize=12;exitX=0.22113088150633556;exitY=1.0015432569715712;entryX=1.0027091007104656;entryY=0.5551248509825998;rounded=0;" edge="1" parent="1" source="e5Bgn7xLFJ1IcLlp3M_Y-51" target="e5Bgn7xLFJ1IcLlp3M_Y-71">
          <mxGeometry relative="1" as="geometry">
            <Array as="points">
              <mxPoint x="418" y="554" />
              <mxPoint x="205" y="554" />
            </Array>
          </mxGeometry>
        </mxCell>
        <mxCell id="e5Bgn7xLFJ1IcLlp3M_Y-102" value="*" style="edgeLabel;resizable=0;labelBackgroundColor=none;fontSize=12;align=right;verticalAlign=top;" vertex="1" parent="e5Bgn7xLFJ1IcLlp3M_Y-101">
          <mxGeometry x="-1" relative="1" as="geometry" />
        </mxCell>
        <mxCell id="e5Bgn7xLFJ1IcLlp3M_Y-103" value="1" style="edgeLabel;resizable=0;labelBackgroundColor=none;fontSize=12;align=left;verticalAlign=bottom;" vertex="1" parent="e5Bgn7xLFJ1IcLlp3M_Y-101">
          <mxGeometry x="1" relative="1" as="geometry" />
        </mxCell>
        <mxCell id="e5Bgn7xLFJ1IcLlp3M_Y-104" value="" style="curved=1;startArrow=none;endArrow=open;endSize=12;exitX=0.03803899151818631;exitY=1.0000000873594794;entryX=1.0027091007104656;entryY=0.15528893861333756;rounded=0;" edge="1" parent="1" source="e5Bgn7xLFJ1IcLlp3M_Y-60" target="e5Bgn7xLFJ1IcLlp3M_Y-71">
          <mxGeometry relative="1" as="geometry">
            <Array as="points">
              <mxPoint x="205" y="483" />
            </Array>
          </mxGeometry>
        </mxCell>
        <mxCell id="e5Bgn7xLFJ1IcLlp3M_Y-105" value="*" style="edgeLabel;resizable=0;labelBackgroundColor=none;fontSize=12;align=right;verticalAlign=top;" vertex="1" parent="e5Bgn7xLFJ1IcLlp3M_Y-104">
          <mxGeometry x="-1" relative="1" as="geometry" />
        </mxCell>
        <mxCell id="e5Bgn7xLFJ1IcLlp3M_Y-106" value="1" style="edgeLabel;resizable=0;labelBackgroundColor=none;fontSize=12;align=left;verticalAlign=bottom;" vertex="1" parent="e5Bgn7xLFJ1IcLlp3M_Y-104">
          <mxGeometry x="1" relative="1" as="geometry" />
        </mxCell>
      </root>
    </mxGraphModel>
  </diagram>
</mxfile>
